<?xml version="1.0" encoding="utf-8"?>
<!-- Generator: Adobe Illustrator 26.5.0, SVG Export Plug-In . SVG Version: 6.00 Build 0)  -->
<svg version="1.1" id="Ebene_1" xmlns="http://www.w3.org/2000/svg" xmlns:xlink="http://www.w3.org/1999/xlink" x="0px" y="0px"
	 viewBox="0 0 888 307.8" style="enable-background:new 0 0 888 307.8;" xml:space="preserve">
<style type="text/css">
	.st0{fill:#27272D;}
	.st1{fill:#E5FE58;}
	.st2{fill:#FFFFFF;}
</style>
<path class="st0" d="M642.1,300.7l-117.2-3.6c0,0,8.8-56.4-19.5-72.1c-19.3-10.7-36.4-60.6-31.5-94.6c0.1-0.5,0.1-0.9,0.2-1.3
	c2.5-15.2,9.5-27,23-30.2c43.6-10.3,74.7-2.3,74.7-2.3s7.2,0.1,17.9,2.2c0.4,0.1,0.8,0.2,1.1,0.2c30.2,6.3,86.1,28.9,88.5,109
	C682.7,318.1,642.1,300.7,642.1,300.7L642.1,300.7z"/>
<path class="st1" d="M589.9,98.9c-0.2,5.8-1.4,11.6-3.6,17.1c-4.6,11.4-13,20.1-23.7,24.6c-31.9,13.2-69.2,0.1-88-14.1
	c-0.1,0.4-1.6,9-1.6,9.4c8.3,6.2,49.2,12.2,56.9,12.2c11.8,0,23.1-2.1,33.1-6.3c10.9-4.5,19.6-13.5,24.3-25.2
	c2.3-5.6,3.5-11.5,3.7-17.4C590.7,99.1,590.3,99,589.9,98.9L589.9,98.9L589.9,98.9z"/>
<path class="st0" d="M598.6,106.4l-18.7-51c0,0,22.5-41.7,4.8-46.4c-17.7-4.6-35.8,20.3-35.8,20.3s-33.7-12.8-46.5-2.3
	c0,0-21.4-32.5-34.2-26.1c-12.8,6.4,4.6,52.3,4.6,52.3s-26.5,42.2-6.2,66.5C486.9,144,563.3,163.8,598.6,106.4L598.6,106.4
	L598.6,106.4z"/>
<path class="st2" d="M1,301.8h887v-3.7H1c-0.6,0-1,0.8-1,1.9l0,0C0,301,0.4,301.8,1,301.8z"/>
<path class="st0" d="M638.8,273.4c6.4,3.1,13,6.2,20,5.9c7-0.3,14.3-5.2,15.4-12.6c0.6-3.9-0.5-8,0.8-11.6c1.8-4.9,7.7-6.7,12.3-5.1
	c4.6,1.7,8,6,10.4,10.5c4.5,8.5,6.3,19.7,1.5,28c-4.2,7.2-12.2,10.4-19.6,13.2c-9.9,3.7-20.9,7.4-30.5,2.8
	c-9.6-4.6-14.9-17.8-11.3-28.6"/>
<path class="st1" d="M533.3,83.4c0,0-11.5-5-19,1.3L523,99L533.3,83.4L533.3,83.4z"/>
<path class="st0" d="M472.9,149l21.3,123c0,0-32.2,35.6,9.2,35c41.5-0.6,29.4-23.7,29.4-23.7l-13.2-106.7"/>
<path class="st1" d="M502.3,307.8c-11.2,0-18-2.8-20.2-8.3c-4-10,8.9-25.3,11.1-27.9L478,179.7l1.6-0.3l15.5,92.8l-0.3,0.3
	c-0.1,0.2-14.9,16.6-11.1,26.2c2,4.9,8.6,7.4,19.7,7.2c15.5-0.2,25.5-3.8,28.9-10.2c3.1-5.8-0.2-12.1-0.2-12.2l-0.1-0.2l0-0.2
	l-9.2-74.3l1.6-0.2l9.2,74.1c0.5,1.1,3.4,7.6,0.1,13.8c-3.8,7.1-13.9,10.8-30.3,11.1C503.1,307.8,502.7,307.8,502.3,307.8
	L502.3,307.8z"/>
<path class="st0" d="M527,149l21.3,123c0,0-32.2,35.6,9.2,35c41.5-0.6,29.4-23.7,29.4-23.7l-13.2-106.7"/>
<path class="st1" d="M556.5,307.8c-11.2,0-18-2.8-20.2-8.3c-4-10,8.9-25.3,11.1-27.9l-8.6-49.5l1.6-0.3l8.7,50.4l-0.3,0.3
	c-0.1,0.2-14.9,16.6-11.1,26.2c2,4.9,8.6,7.4,19.7,7.2c15.5-0.2,25.5-3.8,28.9-10.2c3.1-5.8-0.2-12.1-0.2-12.2l-0.1-0.2l-13.3-106.9
	l1.6-0.2l13.2,106.6c0.5,1.1,3.4,7.6,0.1,13.8c-3.8,7.1-13.9,10.8-30.3,11.1C557.2,307.8,556.8,307.8,556.5,307.8L556.5,307.8z"/>
</svg>
